<svg width="120" height="30" viewBox="0 0 120 30" fill="none" xmlns="http://www.w3.org/2000/svg">
<path d="M20.6431 23.3788C20.5302 23.6123 20.3651 23.7982 20.1478 23.9365C19.9306 24.0749 19.6917 24.144 19.431 24.144C19.0574 24.144 18.7403 24.0143 18.4796 23.755C18.219 23.4956 18.0886 23.18 18.0886 22.8082C18.0886 22.6093 18.1277 22.4191 18.2059 22.2375L21.2296 15.4676C21.3425 15.2341 21.5076 15.0482 21.7249 14.9099C21.9421 14.7716 22.181 14.7024 22.4417 14.7024C22.8153 14.7024 23.1324 14.8321 23.3931 15.0915C23.6537 15.3509 23.7841 15.6664 23.7841 16.0382C23.7841 16.2371 23.745 16.4273 23.6668 16.6089L20.6431 23.3788ZM35.1229 22.2375C35.2097 22.4105 35.2532 22.6007 35.2532 22.8082C35.2532 23.18 35.1229 23.4956 34.8622 23.755C34.6015 24.0143 34.2844 24.144 33.9108 24.144C33.6501 24.144 33.4112 24.0749 33.194 23.9365C32.9767 23.7982 32.8117 23.6123 32.6987 23.3788L25.7781 7.91945C25.6913 7.74653 25.6478 7.55631 25.6478 7.34881C25.6478 6.97702 25.7781 6.66143 26.0388 6.40205C26.2995 6.14266 26.6166 6.01297 26.9902 6.01297C27.2509 6.01297 27.4898 6.08214 27.707 6.22048C27.9243 6.35882 28.0893 6.54471 28.2023 6.77816L35.1229 22.2375Z" fill="#5DBE74"/>
<path d="M48.4073 18.8526C48.4073 18.4808 48.5377 18.1652 48.7983 17.9058C49.059 17.6464 49.3761 17.5167 49.7497 17.5167C50.1234 17.5167 50.4405 17.6464 50.7012 17.9058C50.9618 18.1652 51.0921 18.4808 51.0921 18.8526C51.0921 19.8123 50.8532 20.6985 50.3753 21.5113C49.8975 22.324 49.2501 22.9681 48.4334 23.4437C47.6167 23.9192 46.7217 24.157 45.7486 24.157H38.9844C38.6108 24.157 38.2937 24.0273 38.033 23.7679C37.7723 23.5085 37.642 23.1929 37.642 22.8212C37.642 22.4494 37.7723 22.1338 38.033 21.8744C38.2937 21.615 38.6108 21.4853 38.9844 21.4853H45.7486C46.2352 21.4853 46.6783 21.3686 47.078 21.1352C47.4863 20.8931 47.8078 20.5732 48.0424 20.1754C48.2857 19.7691 48.4073 19.3281 48.4073 18.8526ZM45.3185 13.7427C45.6921 13.7427 46.0092 13.8724 46.2699 14.1317C46.5306 14.3911 46.6609 14.7067 46.6609 15.0785C46.6609 15.4503 46.5306 15.7659 46.2699 16.0253C46.0092 16.2846 45.6921 16.4143 45.3185 16.4143H43.168C42.7944 16.4143 42.4773 16.2846 42.2166 16.0253C41.956 15.7659 41.8256 15.4503 41.8256 15.0785C41.8256 14.7067 41.956 14.3911 42.2166 14.1317C42.4773 13.8724 42.7944 13.7427 43.168 13.7427H45.3185ZM40.0792 11.3044C40.0792 11.6762 39.9489 11.9918 39.6882 12.2512C39.4275 12.5106 39.1104 12.6403 38.7368 12.6403C38.3632 12.6403 38.046 12.5106 37.7854 12.2512C37.5247 11.9918 37.3944 11.6762 37.3944 11.3044C37.3944 10.3447 37.6333 9.45848 38.1112 8.64573C38.5891 7.83299 39.2364 7.18885 40.0531 6.71331C40.8699 6.23777 41.7648 6 42.7379 6H49.5021C49.8757 6 50.1929 6.12969 50.4535 6.38908C50.7142 6.64846 50.8445 6.96405 50.8445 7.33584C50.8445 7.70762 50.7142 8.02321 50.4535 8.28259C50.1929 8.54198 49.8757 8.67167 49.5021 8.67167H42.7379C42.2514 8.67167 41.8039 8.79272 41.3955 9.03481C40.9959 9.26826 40.6744 9.58817 40.4311 9.99454C40.1965 10.3923 40.0792 10.8289 40.0792 11.3044Z" fill="#5DBE74"/>
<path d="M56.2933 22.8212C56.2933 23.1929 56.163 23.5085 55.9023 23.7679C55.6417 24.0273 55.3245 24.157 54.9509 24.157C54.5773 24.157 54.2602 24.0273 53.9995 23.7679C53.7388 23.5085 53.6085 23.1929 53.6085 22.8212V20.1106C53.6085 19.7388 53.7388 19.4232 53.9995 19.1638C54.2602 18.9044 54.5773 18.7747 54.9509 18.7747C55.3245 18.7747 55.6417 18.9044 55.9023 19.1638C56.163 19.4232 56.2933 19.7388 56.2933 20.1106V22.8212ZM53.6085 7.33584C53.6085 6.96405 53.7388 6.64846 53.9995 6.38908C54.2602 6.12969 54.5773 6 54.9509 6C55.3245 6 55.6417 6.12969 55.9023 6.38908C56.163 6.64846 56.2933 6.96405 56.2933 7.33584V15.0785C56.2933 15.4503 56.163 15.7659 55.9023 16.0253C55.6417 16.2846 55.3245 16.4143 54.9509 16.4143C54.5773 16.4143 54.2602 16.2846 53.9995 16.0253C53.7388 15.7659 53.6085 15.4503 53.6085 15.0785V7.33584ZM68.0622 16.4143H54.9509V13.7427H68.0622V16.4143ZM66.7198 15.0785C66.7198 14.7067 66.8501 14.3911 67.1108 14.1317C67.3714 13.8724 67.6886 13.7427 68.0622 13.7427C68.4358 13.7427 68.7529 13.8724 69.0136 14.1317C69.2743 14.3911 69.4046 14.7067 69.4046 15.0785V23.6642C69.4046 24.036 69.2743 24.3515 69.0136 24.6109C68.7529 24.8703 68.4358 25 68.0622 25C67.6886 25 67.3714 24.8703 67.1108 24.6109C66.8501 24.3515 66.7198 24.036 66.7198 23.6642V15.0785ZM69.4046 10.0464C69.4046 10.4182 69.2743 10.7338 69.0136 10.9932C68.7529 11.2526 68.4358 11.3823 68.0622 11.3823C67.6886 11.3823 67.3714 11.2526 67.1108 10.9932C66.8501 10.7338 66.7198 10.4182 66.7198 10.0464V7.33584C66.7198 6.96405 66.8501 6.64846 67.1108 6.38908C67.3714 6.12969 67.6886 6 68.0622 6C68.4358 6 68.7529 6.12969 69.0136 6.38908C69.2743 6.64846 69.4046 6.96405 69.4046 7.33584V10.0464Z" fill="#5DBE74"/>
<path d="M74.8158 11.901C74.8158 12.2728 74.6855 12.5884 74.4248 12.8478C74.1642 13.1072 73.847 13.2369 73.4734 13.2369C73.0998 13.2369 72.7827 13.1072 72.522 12.8478C72.2613 12.5884 72.131 12.2728 72.131 11.901V7.33584C72.131 6.96405 72.2613 6.64846 72.522 6.38908C72.7827 6.12969 73.0998 6 73.4734 6C73.847 6 74.1642 6.12969 74.4248 6.38908C74.6855 6.64846 74.8158 6.96405 74.8158 7.33584V11.901ZM83.1961 8.17884C83.1961 7.80705 83.3264 7.49147 83.5871 7.23208C83.8477 6.9727 84.1649 6.843 84.5385 6.843C84.9121 6.843 85.2292 6.9727 85.4899 7.23208C85.7506 7.49147 85.8809 7.80705 85.8809 8.17884V17.387C85.8809 18.6321 85.5725 19.7777 84.9556 20.8239C84.3387 21.8701 83.5045 22.7001 82.4532 23.314C81.4019 23.9192 80.255 24.2218 79.0125 24.2218C77.77 24.2218 76.6231 23.9192 75.5717 23.314C74.5204 22.7001 73.6863 21.8701 73.0694 20.8239C72.4612 19.7777 72.1571 18.6321 72.1571 17.387C72.1571 17.0152 72.2874 16.6997 72.5481 16.4403C72.8087 16.1809 73.1259 16.0512 73.4995 16.0512C73.8731 16.0512 74.1902 16.1809 74.4509 16.4403C74.7116 16.6997 74.8419 17.0152 74.8419 17.387C74.8419 18.1479 75.0287 18.8482 75.4023 19.4881C75.7759 20.1192 76.2799 20.6207 76.9141 20.9925C77.5571 21.3643 78.2565 21.5502 79.0125 21.5502C79.7684 21.5502 80.4678 21.3643 81.1108 20.9925C81.7538 20.6207 82.262 20.1149 82.6357 19.4751C83.0093 18.8353 83.1961 18.1392 83.1961 17.387V8.17884Z" fill="#5DBE74"/>
<path d="M91.3937 18.3468C91.5154 18.1911 91.6674 18.0701 91.8499 17.9836C92.0411 17.8885 92.2409 17.841 92.4494 17.841C92.823 17.841 93.1402 17.9706 93.4008 18.23C93.6615 18.4894 93.7918 18.805 93.7918 19.1768C93.7918 19.4881 93.6963 19.7647 93.5051 20.0068L90.6248 23.6642C90.5031 23.8198 90.3468 23.9452 90.1556 24.0403C89.9731 24.1267 89.7776 24.17 89.5691 24.17C89.1955 24.17 88.8784 24.0403 88.6177 23.7809C88.357 23.5215 88.2267 23.2059 88.2267 22.8341C88.2267 22.5229 88.3266 22.2462 88.5265 22.0041L91.3937 18.3468ZM88.5656 8.16587C88.3657 7.92378 88.2658 7.6471 88.2658 7.33584C88.2658 6.96405 88.3961 6.64846 88.6568 6.38908C88.9175 6.12969 89.2346 6 89.6082 6C89.8167 6 90.0122 6.04755 90.1947 6.14266C90.3858 6.22912 90.5422 6.35017 90.6639 6.5058L102.824 21.9911C103.024 22.2332 103.124 22.5099 103.124 22.8212C103.124 23.1929 102.993 23.5085 102.733 23.7679C102.472 24.0273 102.155 24.157 101.781 24.157C101.573 24.157 101.373 24.1138 101.182 24.0273C100.999 23.9322 100.847 23.8068 100.725 23.6512L88.5656 8.16587ZM100.738 6.5058C100.86 6.35017 101.012 6.22912 101.195 6.14266C101.386 6.04755 101.586 6 101.794 6C102.168 6 102.485 6.12969 102.746 6.38908C103.006 6.64846 103.137 6.96405 103.137 7.33584C103.137 7.6471 103.037 7.92378 102.837 8.16587L99.9825 11.7973C99.8609 11.9615 99.7088 12.0912 99.5264 12.1863C99.3439 12.2728 99.1441 12.316 98.9269 12.316C98.5532 12.316 98.2361 12.1863 97.9754 11.927C97.7148 11.6676 97.5845 11.352 97.5845 10.9802C97.5845 10.6689 97.68 10.3966 97.8712 10.1631L100.738 6.5058Z" fill="#5DBE74"/>
<path d="M113.927 7.32287V22.8212C113.927 23.1929 113.796 23.5085 113.536 23.7679C113.275 24.0273 112.958 24.157 112.584 24.157C112.211 24.157 111.894 24.0273 111.633 23.7679C111.372 23.5085 111.242 23.1929 111.242 22.8212V7.32287H113.927ZM106.511 8.67167C106.137 8.67167 105.82 8.54198 105.559 8.28259C105.299 8.02321 105.168 7.70762 105.168 7.33584C105.168 6.96405 105.299 6.64846 105.559 6.38908C105.82 6.12969 106.137 6 106.511 6H112.584C112.958 6 113.275 6.12969 113.536 6.38908C113.796 6.64846 113.927 6.96405 113.927 7.33584C113.927 7.70762 113.796 8.02321 113.536 8.28259C113.275 8.54198 112.958 8.67167 112.584 8.67167H106.511ZM116.872 8.67167C116.499 8.67167 116.181 8.54198 115.921 8.28259C115.66 8.02321 115.53 7.70762 115.53 7.33584C115.53 6.96405 115.66 6.64846 115.921 6.38908C116.181 6.12969 116.499 6 116.872 6H118.658C119.031 6 119.348 6.12969 119.609 6.38908C119.87 6.64846 120 6.96405 120 7.33584C120 7.70762 119.87 8.02321 119.609 8.28259C119.348 8.54198 119.031 8.67167 118.658 8.67167H116.872Z" fill="#5DBE74"/>
<mask id="mask0_772_343" style="mask-type:alpha" maskUnits="userSpaceOnUse" x="0" y="0" width="23" height="30">
<rect width="22.1082" height="30" fill="#D9D9D9"/>
</mask>
<g mask="url(#mask0_772_343)">
<path d="M19.1032 14.8334C19.1032 18.5233 18.1663 21.7689 16.7572 24.028C15.3302 26.3157 13.6161 27.3334 12.0589 27.3334C10.5018 27.3334 8.78759 26.3157 7.36061 24.028C5.95153 21.7689 5.01465 18.5233 5.01465 14.8334C5.01465 11.1434 5.95153 7.89785 7.36061 5.63879C8.78759 3.35101 10.5018 2.33337 12.0589 2.33337C13.6161 2.33337 15.3302 3.35101 16.7572 5.63879C18.1663 7.89785 19.1032 11.1434 19.1032 14.8334Z" stroke="#5DBE74" stroke-opacity="0.25" stroke-width="4"/>
<mask id="mask1_772_343" style="mask-type:luminance" maskUnits="userSpaceOnUse" x="-4" y="4" width="21" height="22">
<path d="M16.4136 15.1668C16.4136 20.9559 11.9144 25.649 6.36437 25.649C0.814361 25.649 -3.68481 26.5685 -3.68481 15.1668C-3.68481 3.76498 0.814361 4.68449 6.36437 4.68449C11.9144 4.68449 16.4136 9.37756 16.4136 15.1668Z" fill="white"/>
</mask>
<g mask="url(#mask1_772_343)">
<rect x="1.00488" y="21.0546" width="13.0639" height="2.94543" rx="1.47271" fill="url(#paint0_linear_772_343)"/>
<rect x="1.00488" y="16.1455" width="16.0787" height="2.94543" rx="1.47271" fill="url(#paint1_linear_772_343)"/>
<rect x="1.00488" y="11.2365" width="16.0787" height="2.94543" rx="1.47271" fill="url(#paint2_linear_772_343)"/>
<rect x="1.00488" y="6" width="13.0639" height="2.94543" rx="1.47271" fill="url(#paint3_linear_772_343)"/>
</g>
</g>
<defs>
<linearGradient id="paint0_linear_772_343" x1="1.34002" y1="22.3636" x2="14.404" y2="22.3636" gradientUnits="userSpaceOnUse">
<stop stop-color="#5DBE74"/>
<stop offset="0.645" stop-color="#5DBE74"/>
<stop offset="1" stop-color="#5DBE74" stop-opacity="0"/>
</linearGradient>
<linearGradient id="paint1_linear_772_343" x1="1.34002" y1="17.4545" x2="17.4187" y2="17.4545" gradientUnits="userSpaceOnUse">
<stop stop-color="#5DBE74"/>
<stop offset="0.65" stop-color="#5DBE74"/>
<stop offset="1" stop-color="#5DBE74" stop-opacity="0"/>
</linearGradient>
<linearGradient id="paint2_linear_772_343" x1="1.34002" y1="12.5454" x2="17.4187" y2="12.5454" gradientUnits="userSpaceOnUse">
<stop stop-color="#5DBE74"/>
<stop offset="0.65" stop-color="#5DBE74"/>
<stop offset="1" stop-color="#5DBE74" stop-opacity="0"/>
</linearGradient>
<linearGradient id="paint3_linear_772_343" x1="0.83756" y1="7.309" x2="14.404" y2="7.309" gradientUnits="userSpaceOnUse">
<stop stop-color="#5DBE74"/>
<stop offset="0.65" stop-color="#5DBE74"/>
<stop offset="1" stop-color="#5DBE74" stop-opacity="0"/>
</linearGradient>
</defs>
</svg>
