<svg width="22" height="30" viewBox="0 0 22 30" fill="none" xmlns="http://www.w3.org/2000/svg">
<mask id="mask0_772_346" style="mask-type:alpha" maskUnits="userSpaceOnUse" x="0" y="0" width="22" height="30">
<rect width="22" height="30" fill="#D9D9D9"/>
</mask>
<g mask="url(#mask0_772_346)">
<path d="M19 14.8334C19 18.5251 18.0672 21.7721 16.6647 24.0317C15.2435 26.3213 13.5401 27.3334 12 27.3334C10.4599 27.3334 8.75647 26.3213 7.33532 24.0317C5.93279 21.7721 5 18.5251 5 14.8334C5 11.1416 5.93279 7.89468 7.33532 5.63505C8.75647 3.34542 10.4599 2.33337 12 2.33337C13.5401 2.33337 15.2435 3.34542 16.6647 5.63505C18.0672 7.89468 19 11.1416 19 14.8334Z" stroke="#5DBE74" stroke-opacity="0.25" stroke-width="4"/>
<mask id="mask1_772_346" style="mask-type:luminance" maskUnits="userSpaceOnUse" x="-4" y="4" width="21" height="22">
<path d="M16.3333 15.1668C16.3333 20.9559 11.8561 25.649 6.33325 25.649C0.810404 25.649 -3.66675 26.5685 -3.66675 15.1668C-3.66675 3.76498 0.810404 4.68449 6.33325 4.68449C11.8561 4.68449 16.3333 9.37756 16.3333 15.1668Z" fill="white"/>
</mask>
<g mask="url(#mask1_772_346)">
<rect x="1" y="21.0546" width="13" height="2.94543" rx="1.47271" fill="url(#paint0_linear_772_346)"/>
<rect x="1" y="16.1455" width="16" height="2.94543" rx="1.47271" fill="url(#paint1_linear_772_346)"/>
<rect x="1" y="11.2365" width="16" height="2.94543" rx="1.47271" fill="url(#paint2_linear_772_346)"/>
<rect x="1" y="6" width="13" height="2.94543" rx="1.47271" fill="url(#paint3_linear_772_346)"/>
</g>
</g>
<defs>
<linearGradient id="paint0_linear_772_346" x1="1.3335" y1="22.3636" x2="14.3335" y2="22.3636" gradientUnits="userSpaceOnUse">
<stop stop-color="#5DBE74"/>
<stop offset="0.645" stop-color="#5DBE74"/>
<stop offset="1" stop-color="#5DBE74" stop-opacity="0"/>
</linearGradient>
<linearGradient id="paint1_linear_772_346" x1="1.3335" y1="17.4545" x2="17.3335" y2="17.4545" gradientUnits="userSpaceOnUse">
<stop stop-color="#5DBE74"/>
<stop offset="0.65" stop-color="#5DBE74"/>
<stop offset="1" stop-color="#5DBE74" stop-opacity="0"/>
</linearGradient>
<linearGradient id="paint2_linear_772_346" x1="1.3335" y1="12.5454" x2="17.3335" y2="12.5454" gradientUnits="userSpaceOnUse">
<stop stop-color="#5DBE74"/>
<stop offset="0.65" stop-color="#5DBE74"/>
<stop offset="1" stop-color="#5DBE74" stop-opacity="0"/>
</linearGradient>
<linearGradient id="paint3_linear_772_346" x1="0.833496" y1="7.309" x2="14.3335" y2="7.309" gradientUnits="userSpaceOnUse">
<stop stop-color="#5DBE74"/>
<stop offset="0.65" stop-color="#5DBE74"/>
<stop offset="1" stop-color="#5DBE74" stop-opacity="0"/>
</linearGradient>
</defs>
</svg>
